<svg width="58" height="57" viewBox="0 0 58 57" fill="none" xmlns="http://www.w3.org/2000/svg">
<path d="M58 0H0V57H58V0Z" fill="#1C1C1C"/>
<path d="M22.71 40.11C22.71 40.93 22.73 41.58 22.77 42.06C22.83 42.52 22.94 42.88 23.1 43.14C23.28 43.38 23.54 43.54 23.88 43.62C24.24 43.7 24.72 43.76 25.32 43.8V45H15.87V43.8C16.45 43.76 16.91 43.7 17.25 43.62C17.61 43.54 17.88 43.38 18.06 43.14C18.26 42.9 18.39 42.56 18.45 42.12C18.51 41.68 18.54 41.08 18.54 40.32V36.57C18.54 35.39 18.52 34.44 18.48 33.72C18.44 32.98 18.39 32.48 18.33 32.22C18.27 31.96 18.19 31.75 18.09 31.59C17.99 31.41 17.84 31.28 17.64 31.2C17.44 31.1 17.19 31.04 16.89 31.02C16.59 30.98 16.21 30.96 15.75 30.96V29.94L21.54 28.8L21.93 31.44H22.05C22.71 30.6 23.49 29.95 24.39 29.49C25.29 29.03 26.28 28.8 27.36 28.8C28.64 28.8 29.67 28.98 30.45 29.34C31.25 29.68 31.96 30.26 32.58 31.08C32.92 31.54 33.22 32.14 33.48 32.88C33.74 33.6 33.87 34.6 33.87 35.88V40.11C33.87 40.93 33.89 41.58 33.93 42.06C33.99 42.52 34.1 42.88 34.26 43.14C34.44 43.38 34.7 43.54 35.04 43.62C35.38 43.7 35.84 43.76 36.42 43.8V45H27.03V43.8C27.63 43.78 28.1 43.73 28.44 43.65C28.8 43.55 29.07 43.38 29.25 43.14C29.43 42.9 29.55 42.56 29.61 42.12C29.67 41.66 29.7 41.06 29.7 40.32V36.24C29.7 35.22 29.64 34.36 29.52 33.66C29.4 32.96 29.2 32.4 28.92 31.98C28.66 31.54 28.31 31.23 27.87 31.05C27.43 30.85 26.88 30.75 26.22 30.75C25.58 30.75 25.03 30.93 24.57 31.29C24.11 31.65 23.71 32.15 23.37 32.79C23.19 33.15 23.03 33.62 22.89 34.2C22.77 34.76 22.71 35.35 22.71 35.97V40.11ZM50.7469 34.02C50.7469 33.22 50.7269 32.59 50.6869 32.13C50.6469 31.65 50.5369 31.29 50.3569 31.05C50.1769 30.79 49.9069 30.62 49.5469 30.54C49.2069 30.44 48.7369 30.36 48.1369 30.3V29.1H54.9169V38.19C54.9169 39.41 54.9269 40.37 54.9469 41.07C54.9869 41.75 55.0469 42.26 55.1269 42.6C55.1869 42.86 55.2569 43.07 55.3369 43.23C55.4169 43.37 55.5469 43.49 55.7269 43.59C55.9069 43.67 56.1469 43.73 56.4469 43.77C56.7669 43.79 57.1769 43.8 57.6769 43.8V44.97L51.7069 45.33L51.3769 42.66H51.2569C50.7369 43.5 50.0069 44.15 49.0669 44.61C48.1269 45.07 47.0769 45.3 45.9169 45.3C43.7769 45.3 42.1469 44.54 41.0269 43.02C40.1669 41.86 39.7369 40.21 39.7369 38.07V34.02C39.7369 33.2 39.7169 32.56 39.6769 32.1C39.6369 31.62 39.5269 31.26 39.3469 31.02C39.1869 30.78 38.9369 30.62 38.5969 30.54C38.2569 30.44 37.7869 30.36 37.1869 30.3V29.1H43.9069V37.59C43.9069 39.61 44.1569 41.08 44.6569 42C45.1569 42.9 45.9569 43.35 47.0569 43.35C48.2369 43.35 49.1469 42.81 49.7869 41.73C50.4269 40.69 50.7469 39.16 50.7469 37.14V34.02Z" fill="white"/>
</svg>
